# xmcd
#
# Track frame offsets:
#	150
#	19536
#	39577
#	52801
#	69391
#	90353
#	109559
#	126098
#	148168
#	179528
#	201067
#	221325
#
# Disc length: 3131 seconds
#
# Revision: 1
# Processed by: cddbd v1.5.2PL0 Copyright (c) Steve Scherf et al.
# Submitted via: audiograbber 1.83.01
#
DISCID=9d0c390c
DTITLE=Vargas Blues Band - Lost and Found
DYEAR=2007
DGENRE=Blues
TTITLE0=Get funky
TTITLE1=Man on the run
TTITLE2=Open you eyes
TTITLE3=If six was nine 
TTITLE4=Thrill is gone
TTITLE5=Lost and found
TTITLE6=Voodoo woman
TTITLE7=I need your love so bad 
TTITLE8=Walking the back streets and crying
TTITLE9=One way out (live)
TTITLE10=Statesboro blues (live)
TTITLE11=Layla (live)
EXTD=
EXTT0=
EXTT1=
EXTT2=
EXTT3=
EXTT4=
EXTT5=
EXTT6=
EXTT7=
EXTT8=
EXTT9=
EXTT10=
EXTT11=
PLAYORDER=
